<svg width="16" height="16" viewBox="0 0 16 16" fill="none" xmlns="http://www.w3.org/2000/svg">
<path d="M4.5 1C4.5 0.723858 4.72386 0.5 5 0.5H9.08579C9.351 0.5 9.60536 0.605357 9.79289 0.792893L10.2071 1.20711C10.3946 1.39464 10.649 1.5 10.9142 1.5H15C15.2761 1.5 15.5 1.72386 15.5 2V8C15.5 8.27614 15.2761 8.5 15 8.5H5C4.72386 8.5 4.5 8.27614 4.5 8V1Z" fill="var(--mw-icon-background-light-yellow, #FFF5BC)" stroke="#674C06"/>
<path d="M10.0326 15.2284L5.08643 10.2822L6.00634 9.3623L10.9525 14.3085C11.201 14.557 11.201 14.96 10.9525 15.2085L10.9325 15.2284C10.684 15.4769 10.2811 15.4769 10.0326 15.2284Z" fill="var(--mw-icon-background-default-medium-gray, #D9D9D9)" stroke="var(--mw-icon-glyph-content-gray, #616162)"/>
<path d="M7.32845 5.67157C8.89054 7.23367 8.89051 9.76633 7.3284 11.3284C5.76629 12.8905 3.23363 12.8905 1.67155 11.3284C0.109464 9.76633 0.109488 7.23367 1.6716 5.67157C3.23371 4.10948 5.76637 4.10948 7.32845 5.67157Z" fill="var(--mw-icon-background-default-white, #FFFFFF)" stroke="var(--mw-icon-glyph-content-gray, #616162)"/>
<use href="#find_folder"/></svg>
