<?xml version="1.0" encoding="utf-8"?>
<!-- Generator: Adobe Illustrator 28.0.0, SVG Export Plug-In . SVG Version: 6.00 Build 0)  -->
<svg version="1.1" xmlns="http://www.w3.org/2000/svg" xmlns:xlink="http://www.w3.org/1999/xlink" x="0px" y="0px"
	 viewBox="0 0 16 16" style="enable-background:new 0 0 16 16;" xml:space="preserve">
<style type="text/css">
	.st0{fill:#FBF8BF;stroke:#674C06;}
	.st1{fill:#0795D3;}
	.st2{fill:none;stroke:#ED1C24;stroke-width:1.5;stroke-dasharray:6.0514;}
	.st3{fill:none;}
</style>
<g id="Layer_1">
	<path class="st0" d="M4.5,2c0-0.3,0.2-0.5,0.5-0.5h4.1c0.3,0,0.5,0.1,0.7,0.3l0.4,0.4c0.2,0.2,0.4,0.3,0.7,0.3H15
		c0.3,0,0.5,0.2,0.5,0.5v6c0,0.3-0.2,0.5-0.5,0.5H5C4.7,9.5,4.5,9.3,4.5,9V2z"/>
	<g>
		<g>
			<line class="st1" x1="11.5" y1="1.5" x2="11.5" y2="7.6"/>
			<line class="st2" x1="11.5" y1="1.5" x2="11.5" y2="7.6"/>
		</g>
		<g>
			<line class="st1" x1="8.5" y1="4.5" x2="14.5" y2="4.5"/>
			<line class="st2" x1="8.5" y1="4.5" x2="14.5" y2="4.5"/>
		</g>
	</g>
</g>
<g id="Layer_2">
	<path class="st0" d="M0.5,7c0-0.3,0.2-0.5,0.5-0.5h4.1c0.3,0,0.5,0.1,0.7,0.3l0.4,0.4c0.2,0.2,0.4,0.3,0.7,0.3H11
		c0.3,0,0.5,0.2,0.5,0.5v6c0,0.3-0.2,0.5-0.5,0.5H1c-0.3,0-0.5-0.2-0.5-0.5V7z"/>
	<line class="st3" x1="8.8" y1="15.1" x2="8.8" y2="14.9"/>
	<g>
		<g>
			<line class="st1" x1="7.5" y1="6.5" x2="7.5" y2="12.5"/>
			<line class="st2" x1="7.5" y1="6.5" x2="7.5" y2="12.5"/>
		</g>
		<g>
			<line class="st1" x1="4.5" y1="9.5" x2="10.6" y2="9.5"/>
			<line class="st2" x1="4.5" y1="9.5" x2="10.6" y2="9.5"/>
		</g>
	</g>
</g>
</svg>
