<svg width="16" height="16" viewBox="0 0 16 16" fill="none" xmlns="http://www.w3.org/2000/svg">
<path d="M10.5 0.5H1.5C0.947715 0.5 0.5 0.947715 0.5 1.5V10.5C0.5 11.0523 0.947715 11.5 1.5 11.5H10.5C11.0523 11.5 11.5 11.0523 11.5 10.5V1.5C11.5 0.947715 11.0523 0.5 10.5 0.5Z" fill="var(--mw-icon-background-default-white, #FFFFFF)" stroke="var(--mw-icon-border-default-gray, #616161)" stroke-linecap="round"/>
<path fill-rule="evenodd" clip-rule="evenodd" d="M6.30108 5.6989C5.92756 5.32537 5.32196 5.32537 4.94844 5.6989L3.19737 7.44997C2.82385 7.8235 2.82385 8.4291 3.19737 8.80263C3.57089 9.17615 4.17649 9.17615 4.55001 8.80263L5.30047 8.05216C5.47957 7.87306 5.76995 7.87306 5.94905 8.05216C6.12815 8.23126 6.12815 8.52164 5.94905 8.70074L5.19859 9.45121C4.46687 10.1829 3.28051 10.1829 2.54879 9.45121C1.81707 8.71948 1.81707 7.53312 2.54879 6.80139L4.29986 5.05032C5.03158 4.31859 6.21794 4.31859 6.94966 5.05032C7.12876 5.22942 7.12876 5.5198 6.94966 5.6989C6.77056 5.878 6.48018 5.878 6.30108 5.6989Z" fill="var(--mw-icon-glyph-content-gray, #616162)"/>
<path fill-rule="evenodd" clip-rule="evenodd" d="M5.69892 6.3011C6.07244 6.67463 6.67804 6.67463 7.05156 6.3011L8.80263 4.55002C9.17615 4.1765 9.17615 3.5709 8.80263 3.19737C8.42911 2.82385 7.82351 2.82385 7.44999 3.19737L6.69953 3.94784C6.52043 4.12694 6.23005 4.12694 6.05095 3.94784C5.87185 3.76874 5.87185 3.47836 6.05095 3.29926L6.80141 2.54879C7.53313 1.81707 8.71949 1.81707 9.45121 2.54879C10.1829 3.28052 10.1829 4.46688 9.45121 5.19861L7.70014 6.94968C6.96842 7.68141 5.78206 7.68141 5.05034 6.94968C4.87124 6.77058 4.87124 6.4802 5.05034 6.3011C5.22944 6.122 5.51982 6.122 5.69892 6.3011Z" fill="var(--mw-icon-glyph-content-gray, #616162)"/>
<path d="M5.5 8C5.5 7.72386 5.72386 7.5 6 7.5H9.08579C9.351 7.5 9.60536 7.60536 9.79289 7.79289L11.2071 9.20711C11.3946 9.39464 11.649 9.5 11.9142 9.5H15C15.2761 9.5 15.5 9.72386 15.5 10V15C15.5 15.2761 15.2761 15.5 15 15.5H6C5.72386 15.5 5.5 15.2761 5.5 15V8Z" fill="var(--mw-icon-background-light-yellow, #FFF5BC)" stroke="#674C06"/>
<use href="#folder_project"/></svg>
