<svg width="16" height="16" viewBox="0 0 16 16" fill="none" xmlns="http://www.w3.org/2000/svg">
<path d="M4.5 2C4.5 1.72386 4.72386 1.5 5 1.5H9.08579C9.351 1.5 9.60536 1.60536 9.79289 1.79289L10.2071 2.20711C10.3946 2.39464 10.649 2.5 10.9142 2.5H15C15.2761 2.5 15.5 2.72386 15.5 3V9C15.5 9.27614 15.2761 9.5 15 9.5H5C4.72386 9.5 4.5 9.27614 4.5 9V2Z" fill="var(--mw-icon-background-light-yellow, #FFF5BC)" stroke="#674C06"/>
<path d="M0.5 7C0.5 6.72386 0.723858 6.5 1 6.5H5.08579C5.351 6.5 5.60536 6.60536 5.79289 6.79289L6.20711 7.20711C6.39464 7.39464 6.649 7.5 6.91421 7.5H11C11.2761 7.5 11.5 7.72386 11.5 8V14C11.5 14.2761 11.2761 14.5 11 14.5H1C0.723858 14.5 0.5 14.2761 0.5 14V7Z" fill="var(--mw-icon-background-light-yellow, #FFF5BC)" stroke="#674C06"/>
<use href="#folders"/></svg>
